<mxfile host="app.diagrams.net" modified="2024-02-18T11:08:51.520Z" agent="Mozilla/5.0 (Windows NT 10.0; Win64; x64) AppleWebKit/537.36 (KHTML, like Gecko) Chrome/121.0.0.0 Safari/537.36" etag="cs4KNJK3ywwqy8_w-Qcb" version="23.1.2" type="google">
  <diagram name="Страница — 1" id="ZIvHRaE6xj98YJD_3Kp9">
    <mxGraphModel grid="1" page="1" gridSize="10" guides="1" tooltips="1" connect="1" arrows="1" fold="1" pageScale="1" pageWidth="1169" pageHeight="827" math="0" shadow="0">
      <root>
        <mxCell id="0" />
        <mxCell id="1" parent="0" />
        <mxCell id="x7NN56IQzNF8zz9Aa7Xd-1" value="" style="edgeStyle=entityRelationEdgeStyle;rounded=0;orthogonalLoop=1;jettySize=auto;html=1;" edge="1" parent="1" source="x7NN56IQzNF8zz9Aa7Xd-3" target="x7NN56IQzNF8zz9Aa7Xd-6">
          <mxGeometry relative="1" as="geometry" />
        </mxCell>
        <mxCell id="x7NN56IQzNF8zz9Aa7Xd-2" value="" style="edgeStyle=entityRelationEdgeStyle;rounded=0;orthogonalLoop=1;jettySize=auto;html=1;" edge="1" parent="1" source="x7NN56IQzNF8zz9Aa7Xd-3" target="x7NN56IQzNF8zz9Aa7Xd-7">
          <mxGeometry relative="1" as="geometry" />
        </mxCell>
        <mxCell id="x7NN56IQzNF8zz9Aa7Xd-3" value="Compartilhamento de carro do Urban Routes:&lt;br/&gt;Adicionar carteira de motorista" style="rounded=1;whiteSpace=wrap;html=1;" vertex="1" parent="1">
          <mxGeometry x="370" y="390" width="100" height="90" as="geometry" />
        </mxCell>
        <mxCell id="x7NN56IQzNF8zz9Aa7Xd-4" value="" style="edgeStyle=orthogonalEdgeStyle;rounded=0;orthogonalLoop=1;jettySize=auto;html=1;curved=1;entryX=0.5;entryY=1;entryDx=0;entryDy=0;exitX=0.5;exitY=0;exitDx=0;exitDy=0;" edge="1" parent="1" source="x7NN56IQzNF8zz9Aa7Xd-6" target="x7NN56IQzNF8zz9Aa7Xd-8">
          <mxGeometry relative="1" as="geometry">
            <mxPoint x="30" y="370" as="sourcePoint" />
            <mxPoint x="30" y="230" as="targetPoint" />
          </mxGeometry>
        </mxCell>
        <mxCell id="x7NN56IQzNF8zz9Aa7Xd-5" value="" style="edgeStyle=orthogonalEdgeStyle;rounded=0;orthogonalLoop=1;jettySize=auto;html=1;entryX=0.5;entryY=0;entryDx=0;entryDy=0;curved=1;" edge="1" parent="1">
          <mxGeometry relative="1" as="geometry">
            <mxPoint x="210" y="450" as="sourcePoint" />
            <mxPoint x="170" y="525" as="targetPoint" />
          </mxGeometry>
        </mxCell>
        <mxCell id="x7NN56IQzNF8zz9Aa7Xd-6" value="Interface" style="whiteSpace=wrap;html=1;rounded=1;fillColor=#1ba1e2;strokeColor=#006EAF;fontColor=#ffffff;" vertex="1" parent="1">
          <mxGeometry x="180" y="390" width="120" height="60" as="geometry" />
        </mxCell>
        <mxCell id="x7NN56IQzNF8zz9Aa7Xd-7" value="Funcionalidade" style="whiteSpace=wrap;html=1;rounded=1;fillColor=#fff2cc;gradientColor=#ffd966;strokeColor=#d6b656;" vertex="1" parent="1">
          <mxGeometry x="540" y="390" width="120" height="60" as="geometry" />
        </mxCell>
        <mxCell id="x7NN56IQzNF8zz9Aa7Xd-26" value="" style="edgeStyle=orthogonalEdgeStyle;rounded=0;orthogonalLoop=1;jettySize=auto;html=1;curved=1;" edge="1" parent="1" source="x7NN56IQzNF8zz9Aa7Xd-8" target="x7NN56IQzNF8zz9Aa7Xd-25">
          <mxGeometry relative="1" as="geometry" />
        </mxCell>
        <mxCell id="x7NN56IQzNF8zz9Aa7Xd-8" value="Pop-up Adicionar carteira de motorista" style="whiteSpace=wrap;html=1;rounded=1;fillColor=#1ba1e2;fontColor=#ffffff;strokeColor=#006EAF;" vertex="1" parent="1">
          <mxGeometry x="60" y="260" width="120" height="60" as="geometry" />
        </mxCell>
        <mxCell id="x7NN56IQzNF8zz9Aa7Xd-9" style="edgeStyle=orthogonalEdgeStyle;curved=1;rounded=0;orthogonalLoop=1;jettySize=auto;html=1;exitX=1;exitY=0.75;exitDx=0;exitDy=0;entryX=0;entryY=0.5;entryDx=0;entryDy=0;" edge="1" parent="1" source="x7NN56IQzNF8zz9Aa7Xd-8">
          <mxGeometry relative="1" as="geometry">
            <mxPoint x="67.5" y="180" as="sourcePoint" />
            <mxPoint x="220" y="270" as="targetPoint" />
          </mxGeometry>
        </mxCell>
        <mxCell id="x7NN56IQzNF8zz9Aa7Xd-10" value="" style="endArrow=classic;html=1;rounded=0;curved=1;entryX=0.5;entryY=0;entryDx=0;entryDy=0;exitX=0.325;exitY=1.017;exitDx=0;exitDy=0;exitPerimeter=0;" edge="1" parent="1" source="x7NN56IQzNF8zz9Aa7Xd-7" target="x7NN56IQzNF8zz9Aa7Xd-33">
          <mxGeometry width="50" height="50" relative="1" as="geometry">
            <mxPoint x="425" y="610" as="sourcePoint" />
            <mxPoint x="660" y="555" as="targetPoint" />
          </mxGeometry>
        </mxCell>
        <mxCell id="x7NN56IQzNF8zz9Aa7Xd-12" style="edgeStyle=orthogonalEdgeStyle;curved=1;rounded=0;orthogonalLoop=1;jettySize=auto;html=1;exitX=1;exitY=0.5;exitDx=0;exitDy=0;entryX=0.5;entryY=1;entryDx=0;entryDy=0;" edge="1" parent="1" source="x7NN56IQzNF8zz9Aa7Xd-7">
          <mxGeometry relative="1" as="geometry">
            <mxPoint x="860" y="220" as="targetPoint" />
          </mxGeometry>
        </mxCell>
        <mxCell id="x7NN56IQzNF8zz9Aa7Xd-15" style="edgeStyle=orthogonalEdgeStyle;curved=1;rounded=0;orthogonalLoop=1;jettySize=auto;html=1;exitX=0.5;exitY=1;exitDx=0;exitDy=0;entryX=0.5;entryY=0;entryDx=0;entryDy=0;" edge="1" parent="1" source="x7NN56IQzNF8zz9Aa7Xd-17">
          <mxGeometry relative="1" as="geometry">
            <mxPoint x="95" y="660" as="targetPoint" />
          </mxGeometry>
        </mxCell>
        <mxCell id="x7NN56IQzNF8zz9Aa7Xd-16" style="edgeStyle=orthogonalEdgeStyle;curved=1;rounded=0;orthogonalLoop=1;jettySize=auto;html=1;exitX=0;exitY=0.5;exitDx=0;exitDy=0;entryX=1;entryY=0.5;entryDx=0;entryDy=0;" edge="1" parent="1" source="x7NN56IQzNF8zz9Aa7Xd-17">
          <mxGeometry relative="1" as="geometry">
            <mxPoint x="50" y="550" as="targetPoint" />
          </mxGeometry>
        </mxCell>
        <mxCell id="x7NN56IQzNF8zz9Aa7Xd-17" value="Botão Adicionar carteira de motorista" style="whiteSpace=wrap;html=1;rounded=1;fillColor=#1ba1e2;fontColor=#ffffff;strokeColor=#006EAF;" vertex="1" parent="1">
          <mxGeometry x="120" y="525" width="120" height="60" as="geometry" />
        </mxCell>
        <mxCell id="p_vRB4R4y17Bd1J3rTZT-141" value="" style="edgeStyle=orthogonalEdgeStyle;rounded=0;orthogonalLoop=1;jettySize=auto;html=1;entryX=1;entryY=0.5;entryDx=0;entryDy=0;" edge="1" parent="1" source="x7NN56IQzNF8zz9Aa7Xd-19" target="AQnSwi48H9AKD2U_IpFZ-13">
          <mxGeometry relative="1" as="geometry" />
        </mxCell>
        <mxCell id="p_vRB4R4y17Bd1J3rTZT-143" value="" style="edgeStyle=orthogonalEdgeStyle;rounded=0;orthogonalLoop=1;jettySize=auto;html=1;" edge="1" parent="1" source="x7NN56IQzNF8zz9Aa7Xd-19" target="p_vRB4R4y17Bd1J3rTZT-142">
          <mxGeometry relative="1" as="geometry" />
        </mxCell>
        <mxCell id="x7NN56IQzNF8zz9Aa7Xd-19" value="Pop-up Adicionar carteira de motorista" style="rounded=1;whiteSpace=wrap;html=1;fillColor=#f5f5f5;gradientColor=#d6d6d6;strokeColor=#666666;" vertex="1" parent="1">
          <mxGeometry x="795" y="140" width="130" height="80" as="geometry" />
        </mxCell>
        <mxCell id="x7NN56IQzNF8zz9Aa7Xd-29" style="edgeStyle=orthogonalEdgeStyle;curved=1;rounded=0;orthogonalLoop=1;jettySize=auto;html=1;exitX=0;exitY=0.5;exitDx=0;exitDy=0;" edge="1" parent="1" source="x7NN56IQzNF8zz9Aa7Xd-20">
          <mxGeometry relative="1" as="geometry">
            <mxPoint x="-210" y="540" as="targetPoint" />
          </mxGeometry>
        </mxCell>
        <mxCell id="x7NN56IQzNF8zz9Aa7Xd-20" value="Carteira de motorista não adicionada" style="rounded=1;whiteSpace=wrap;html=1;fillColor=#e51400;fontColor=#ffffff;strokeColor=#B20000;" vertex="1" parent="1">
          <mxGeometry x="-160" y="530" width="210" height="50" as="geometry" />
        </mxCell>
        <mxCell id="p_vRB4R4y17Bd1J3rTZT-20" style="edgeStyle=orthogonalEdgeStyle;rounded=0;orthogonalLoop=1;jettySize=auto;html=1;exitX=0;exitY=1;exitDx=0;exitDy=0;entryX=0.5;entryY=0;entryDx=0;entryDy=0;" edge="1" parent="1" source="x7NN56IQzNF8zz9Aa7Xd-21" target="p_vRB4R4y17Bd1J3rTZT-14">
          <mxGeometry relative="1" as="geometry" />
        </mxCell>
        <mxCell id="p_vRB4R4y17Bd1J3rTZT-21" style="edgeStyle=orthogonalEdgeStyle;rounded=0;orthogonalLoop=1;jettySize=auto;html=1;exitX=0.25;exitY=1;exitDx=0;exitDy=0;" edge="1" parent="1" source="x7NN56IQzNF8zz9Aa7Xd-21" target="p_vRB4R4y17Bd1J3rTZT-15">
          <mxGeometry relative="1" as="geometry" />
        </mxCell>
        <mxCell id="p_vRB4R4y17Bd1J3rTZT-23" style="edgeStyle=orthogonalEdgeStyle;rounded=0;orthogonalLoop=1;jettySize=auto;html=1;exitX=1;exitY=1;exitDx=0;exitDy=0;" edge="1" parent="1" source="x7NN56IQzNF8zz9Aa7Xd-21" target="p_vRB4R4y17Bd1J3rTZT-19">
          <mxGeometry relative="1" as="geometry" />
        </mxCell>
        <mxCell id="x7NN56IQzNF8zz9Aa7Xd-21" value="Carteira de motorista foi adicionada" style="rounded=1;whiteSpace=wrap;html=1;fillColor=#dae8fc;gradientColor=#7ea6e0;strokeColor=#6c8ebf;" vertex="1" parent="1">
          <mxGeometry x="-10" y="660" width="210" height="50" as="geometry" />
        </mxCell>
        <mxCell id="x7NN56IQzNF8zz9Aa7Xd-23" style="edgeStyle=orthogonalEdgeStyle;rounded=0;orthogonalLoop=1;jettySize=auto;html=1;exitX=0.5;exitY=0;exitDx=0;exitDy=0;curved=1;entryX=0.5;entryY=1;entryDx=0;entryDy=0;" edge="1" parent="1" source="x7NN56IQzNF8zz9Aa7Xd-22" target="p_vRB4R4y17Bd1J3rTZT-5">
          <mxGeometry relative="1" as="geometry">
            <mxPoint x="280" y="210" as="targetPoint" />
          </mxGeometry>
        </mxCell>
        <mxCell id="x7NN56IQzNF8zz9Aa7Xd-24" style="edgeStyle=orthogonalEdgeStyle;rounded=0;orthogonalLoop=1;jettySize=auto;html=1;exitX=0.75;exitY=0;exitDx=0;exitDy=0;curved=1;" edge="1" parent="1" source="x7NN56IQzNF8zz9Aa7Xd-22">
          <mxGeometry relative="1" as="geometry">
            <mxPoint x="360" y="200" as="targetPoint" />
          </mxGeometry>
        </mxCell>
        <mxCell id="p_vRB4R4y17Bd1J3rTZT-2" style="edgeStyle=orthogonalEdgeStyle;rounded=0;orthogonalLoop=1;jettySize=auto;html=1;exitX=0;exitY=0;exitDx=0;exitDy=0;" edge="1" parent="1" source="x7NN56IQzNF8zz9Aa7Xd-22">
          <mxGeometry relative="1" as="geometry">
            <mxPoint x="190" y="190" as="targetPoint" />
          </mxGeometry>
        </mxCell>
        <mxCell id="x7NN56IQzNF8zz9Aa7Xd-22" value="Campos" style="rounded=1;whiteSpace=wrap;html=1;fillColor=#1ba1e2;fontColor=#ffffff;strokeColor=#006EAF;" vertex="1" parent="1">
          <mxGeometry x="220" y="240" width="120" height="60" as="geometry" />
        </mxCell>
        <mxCell id="AQnSwi48H9AKD2U_IpFZ-12" style="edgeStyle=orthogonalEdgeStyle;rounded=0;orthogonalLoop=1;jettySize=auto;html=1;exitX=0;exitY=0.5;exitDx=0;exitDy=0;entryX=1;entryY=0.5;entryDx=0;entryDy=0;" edge="1" parent="1" source="x7NN56IQzNF8zz9Aa7Xd-25" target="AQnSwi48H9AKD2U_IpFZ-11">
          <mxGeometry relative="1" as="geometry" />
        </mxCell>
        <mxCell id="AQnSwi48H9AKD2U_IpFZ-59" style="edgeStyle=orthogonalEdgeStyle;rounded=0;orthogonalLoop=1;jettySize=auto;html=1;exitX=0.75;exitY=0;exitDx=0;exitDy=0;entryX=0.5;entryY=1;entryDx=0;entryDy=0;" edge="1" parent="1" source="x7NN56IQzNF8zz9Aa7Xd-25" target="p_vRB4R4y17Bd1J3rTZT-12">
          <mxGeometry relative="1" as="geometry" />
        </mxCell>
        <mxCell id="AQnSwi48H9AKD2U_IpFZ-61" style="edgeStyle=orthogonalEdgeStyle;rounded=0;orthogonalLoop=1;jettySize=auto;html=1;exitX=0.5;exitY=0;exitDx=0;exitDy=0;" edge="1" parent="1" source="x7NN56IQzNF8zz9Aa7Xd-25" target="AQnSwi48H9AKD2U_IpFZ-60">
          <mxGeometry relative="1" as="geometry" />
        </mxCell>
        <mxCell id="AQnSwi48H9AKD2U_IpFZ-62" style="edgeStyle=orthogonalEdgeStyle;rounded=0;orthogonalLoop=1;jettySize=auto;html=1;exitX=0;exitY=0;exitDx=0;exitDy=0;" edge="1" parent="1" source="x7NN56IQzNF8zz9Aa7Xd-25">
          <mxGeometry relative="1" as="geometry">
            <mxPoint x="-130" y="110" as="targetPoint" />
          </mxGeometry>
        </mxCell>
        <mxCell id="x7NN56IQzNF8zz9Aa7Xd-25" value="Botões" style="whiteSpace=wrap;html=1;rounded=1;fillColor=#1ba1e2;fontColor=#ffffff;strokeColor=#006EAF;" vertex="1" parent="1">
          <mxGeometry x="35" y="150" width="120" height="60" as="geometry" />
        </mxCell>
        <mxCell id="x7NN56IQzNF8zz9Aa7Xd-39" style="edgeStyle=orthogonalEdgeStyle;curved=1;rounded=0;orthogonalLoop=1;jettySize=auto;html=1;exitX=0.75;exitY=1;exitDx=0;exitDy=0;entryX=0;entryY=0.75;entryDx=0;entryDy=0;" edge="1" parent="1" source="x7NN56IQzNF8zz9Aa7Xd-33" target="x7NN56IQzNF8zz9Aa7Xd-37">
          <mxGeometry relative="1" as="geometry" />
        </mxCell>
        <mxCell id="x7NN56IQzNF8zz9Aa7Xd-40" style="edgeStyle=orthogonalEdgeStyle;curved=1;rounded=0;orthogonalLoop=1;jettySize=auto;html=1;exitX=0.75;exitY=0;exitDx=0;exitDy=0;entryX=0;entryY=0.75;entryDx=0;entryDy=0;" edge="1" parent="1" source="x7NN56IQzNF8zz9Aa7Xd-33" target="x7NN56IQzNF8zz9Aa7Xd-38">
          <mxGeometry relative="1" as="geometry" />
        </mxCell>
        <mxCell id="x7NN56IQzNF8zz9Aa7Xd-33" value="Botão Adicionar carteira de motorista" style="whiteSpace=wrap;html=1;rounded=1;fillColor=#fff2cc;gradientColor=#ffd966;strokeColor=#d6b656;" vertex="1" parent="1">
          <mxGeometry x="695" y="530" width="120" height="60" as="geometry" />
        </mxCell>
        <mxCell id="x7NN56IQzNF8zz9Aa7Xd-42" style="edgeStyle=orthogonalEdgeStyle;curved=1;rounded=0;orthogonalLoop=1;jettySize=auto;html=1;exitX=0.5;exitY=0;exitDx=0;exitDy=0;" edge="1" parent="1" source="x7NN56IQzNF8zz9Aa7Xd-37">
          <mxGeometry relative="1" as="geometry">
            <mxPoint x="1070" y="870" as="targetPoint" />
          </mxGeometry>
        </mxCell>
        <mxCell id="x7NN56IQzNF8zz9Aa7Xd-37" value="Carteira de motorista não adicionada" style="rounded=1;whiteSpace=wrap;html=1;fillColor=#e51400;strokeColor=#B20000;fontColor=#ffffff;" vertex="1" parent="1">
          <mxGeometry x="860" y="930" width="210" height="50" as="geometry" />
        </mxCell>
        <mxCell id="x7NN56IQzNF8zz9Aa7Xd-41" style="edgeStyle=orthogonalEdgeStyle;curved=1;rounded=0;orthogonalLoop=1;jettySize=auto;html=1;exitX=0.5;exitY=0;exitDx=0;exitDy=0;" edge="1" parent="1" source="x7NN56IQzNF8zz9Aa7Xd-38">
          <mxGeometry relative="1" as="geometry">
            <mxPoint x="1010" y="400" as="targetPoint" />
          </mxGeometry>
        </mxCell>
        <mxCell id="x7NN56IQzNF8zz9Aa7Xd-38" value="Carteira de motorista foi adicionada" style="rounded=1;whiteSpace=wrap;html=1;fillColor=#d5e8d4;gradientColor=#97d077;strokeColor=#82b366;" vertex="1" parent="1">
          <mxGeometry x="860" y="460" width="210" height="50" as="geometry" />
        </mxCell>
        <mxCell id="p_vRB4R4y17Bd1J3rTZT-3" value="Nome" style="rounded=1;whiteSpace=wrap;html=1;fillColor=#1ba1e2;fontColor=#ffffff;strokeColor=#006EAF;" vertex="1" parent="1">
          <mxGeometry x="160" y="160" width="70" height="30" as="geometry" />
        </mxCell>
        <mxCell id="p_vRB4R4y17Bd1J3rTZT-5" value="Sobrenome" style="rounded=1;whiteSpace=wrap;html=1;fillColor=#1ba1e2;fontColor=#ffffff;strokeColor=#006EAF;" vertex="1" parent="1">
          <mxGeometry x="245" y="160" width="70" height="30" as="geometry" />
        </mxCell>
        <mxCell id="p_vRB4R4y17Bd1J3rTZT-8" value="Data de Nascimento" style="rounded=1;whiteSpace=wrap;html=1;fillColor=#1ba1e2;fontColor=#ffffff;strokeColor=#006EAF;" vertex="1" parent="1">
          <mxGeometry x="330" y="160" width="70" height="30" as="geometry" />
        </mxCell>
        <mxCell id="p_vRB4R4y17Bd1J3rTZT-9" value="" style="endArrow=classic;html=1;rounded=0;" edge="1" parent="1">
          <mxGeometry width="50" height="50" relative="1" as="geometry">
            <mxPoint x="340" y="260" as="sourcePoint" />
            <mxPoint x="380" y="260" as="targetPoint" />
          </mxGeometry>
        </mxCell>
        <mxCell id="p_vRB4R4y17Bd1J3rTZT-10" value="Numero de Telefone" style="rounded=1;whiteSpace=wrap;html=1;fillColor=#1ba1e2;fontColor=#ffffff;strokeColor=#006EAF;" vertex="1" parent="1">
          <mxGeometry x="385" y="240" width="70" height="30" as="geometry" />
        </mxCell>
        <mxCell id="p_vRB4R4y17Bd1J3rTZT-11" value="Botão &quot;adicionar&quot; na cor cinza, antes de digitar os dados" style="rounded=1;whiteSpace=wrap;html=1;fillColor=#f5f5f5;strokeColor=#666666;gradientColor=#b3b3b3;" vertex="1" parent="1">
          <mxGeometry x="-180" y="15" width="100" height="90" as="geometry" />
        </mxCell>
        <mxCell id="p_vRB4R4y17Bd1J3rTZT-12" value="Botão &quot;cancelar&quot; na cor azul" style="rounded=1;whiteSpace=wrap;html=1;fillColor=#1ba1e2;fontColor=#ffffff;strokeColor=#006EAF;" vertex="1" parent="1">
          <mxGeometry x="120" y="-25" width="70" height="80" as="geometry" />
        </mxCell>
        <mxCell id="AQnSwi48H9AKD2U_IpFZ-6" style="edgeStyle=orthogonalEdgeStyle;rounded=0;orthogonalLoop=1;jettySize=auto;html=1;exitX=0.5;exitY=1;exitDx=0;exitDy=0;entryX=0;entryY=0.75;entryDx=0;entryDy=0;" edge="1" parent="1" source="p_vRB4R4y17Bd1J3rTZT-14" target="AQnSwi48H9AKD2U_IpFZ-5">
          <mxGeometry relative="1" as="geometry" />
        </mxCell>
        <mxCell id="p_vRB4R4y17Bd1J3rTZT-14" value="Nome" style="rounded=1;whiteSpace=wrap;html=1;fillColor=#dae8fc;gradientColor=#7ea6e0;strokeColor=#6c8ebf;" vertex="1" parent="1">
          <mxGeometry x="-80" y="750" width="80" height="40" as="geometry" />
        </mxCell>
        <mxCell id="p_vRB4R4y17Bd1J3rTZT-15" value="Sobrenome" style="rounded=1;whiteSpace=wrap;html=1;fillColor=#dae8fc;gradientColor=#7ea6e0;strokeColor=#6c8ebf;" vertex="1" parent="1">
          <mxGeometry x="10" y="750" width="80" height="40" as="geometry" />
        </mxCell>
        <mxCell id="AQnSwi48H9AKD2U_IpFZ-8" style="edgeStyle=orthogonalEdgeStyle;rounded=0;orthogonalLoop=1;jettySize=auto;html=1;exitX=0.5;exitY=1;exitDx=0;exitDy=0;entryX=0.75;entryY=0;entryDx=0;entryDy=0;" edge="1" parent="1" source="p_vRB4R4y17Bd1J3rTZT-16" target="AQnSwi48H9AKD2U_IpFZ-5">
          <mxGeometry relative="1" as="geometry" />
        </mxCell>
        <mxCell id="p_vRB4R4y17Bd1J3rTZT-16" value="Data de Nascimento" style="rounded=1;whiteSpace=wrap;html=1;fillColor=#dae8fc;gradientColor=#7ea6e0;strokeColor=#6c8ebf;" vertex="1" parent="1">
          <mxGeometry x="100" y="750" width="80" height="40" as="geometry" />
        </mxCell>
        <mxCell id="AQnSwi48H9AKD2U_IpFZ-9" style="edgeStyle=orthogonalEdgeStyle;rounded=0;orthogonalLoop=1;jettySize=auto;html=1;exitX=0.5;exitY=1;exitDx=0;exitDy=0;entryX=1;entryY=0.5;entryDx=0;entryDy=0;" edge="1" parent="1" source="p_vRB4R4y17Bd1J3rTZT-19" target="AQnSwi48H9AKD2U_IpFZ-5">
          <mxGeometry relative="1" as="geometry" />
        </mxCell>
        <mxCell id="p_vRB4R4y17Bd1J3rTZT-19" value="Numero de telefone" style="rounded=1;whiteSpace=wrap;html=1;fillColor=#dae8fc;gradientColor=#7ea6e0;strokeColor=#6c8ebf;" vertex="1" parent="1">
          <mxGeometry x="200" y="750" width="80" height="40" as="geometry" />
        </mxCell>
        <mxCell id="p_vRB4R4y17Bd1J3rTZT-22" style="edgeStyle=orthogonalEdgeStyle;rounded=0;orthogonalLoop=1;jettySize=auto;html=1;exitX=0.75;exitY=1;exitDx=0;exitDy=0;entryX=0.588;entryY=-0.025;entryDx=0;entryDy=0;entryPerimeter=0;" edge="1" parent="1" source="x7NN56IQzNF8zz9Aa7Xd-21" target="p_vRB4R4y17Bd1J3rTZT-16">
          <mxGeometry relative="1" as="geometry" />
        </mxCell>
        <mxCell id="AQnSwi48H9AKD2U_IpFZ-2" style="edgeStyle=orthogonalEdgeStyle;rounded=0;orthogonalLoop=1;jettySize=auto;html=1;exitX=1;exitY=0.5;exitDx=0;exitDy=0;" edge="1" parent="1" source="p_vRB4R4y17Bd1J3rTZT-24" target="AQnSwi48H9AKD2U_IpFZ-1">
          <mxGeometry relative="1" as="geometry" />
        </mxCell>
        <mxCell id="p_vRB4R4y17Bd1J3rTZT-24" value="Mensagem :Obrigado! Os documentos foram enviados para verificação. Nós voltaremos com os resultados em breve" style="rounded=1;whiteSpace=wrap;html=1;fillColor=#d5e8d4;gradientColor=#97d077;strokeColor=#82b366;" vertex="1" parent="1">
          <mxGeometry x="10" y="990" width="150" height="90" as="geometry" />
        </mxCell>
        <mxCell id="p_vRB4R4y17Bd1J3rTZT-71" style="edgeStyle=orthogonalEdgeStyle;rounded=0;orthogonalLoop=1;jettySize=auto;html=1;entryX=0;entryY=0.25;entryDx=0;entryDy=0;strokeWidth=2;" edge="1" parent="1" target="p_vRB4R4y17Bd1J3rTZT-61">
          <mxGeometry relative="1" as="geometry">
            <mxPoint x="1060" y="350" as="sourcePoint" />
          </mxGeometry>
        </mxCell>
        <mxCell id="p_vRB4R4y17Bd1J3rTZT-84" style="edgeStyle=orthogonalEdgeStyle;rounded=0;orthogonalLoop=1;jettySize=auto;html=1;exitX=1;exitY=1;exitDx=0;exitDy=0;entryX=0;entryY=0.75;entryDx=0;entryDy=0;strokeWidth=2;" edge="1" parent="1" source="p_vRB4R4y17Bd1J3rTZT-29" target="p_vRB4R4y17Bd1J3rTZT-83">
          <mxGeometry relative="1" as="geometry" />
        </mxCell>
        <mxCell id="p_vRB4R4y17Bd1J3rTZT-29" value="Campos" style="rounded=1;whiteSpace=wrap;html=1;fillColor=#d5e8d4;strokeColor=#82b366;gradientColor=#97d077;" vertex="1" parent="1">
          <mxGeometry x="950" y="340" width="120" height="60" as="geometry" />
        </mxCell>
        <mxCell id="p_vRB4R4y17Bd1J3rTZT-42" style="edgeStyle=orthogonalEdgeStyle;rounded=0;orthogonalLoop=1;jettySize=auto;html=1;exitX=1;exitY=0;exitDx=0;exitDy=0;entryX=0;entryY=0.25;entryDx=0;entryDy=0;" edge="1" parent="1" source="p_vRB4R4y17Bd1J3rTZT-34" target="p_vRB4R4y17Bd1J3rTZT-36">
          <mxGeometry relative="1" as="geometry" />
        </mxCell>
        <mxCell id="p_vRB4R4y17Bd1J3rTZT-43" style="edgeStyle=orthogonalEdgeStyle;rounded=0;orthogonalLoop=1;jettySize=auto;html=1;exitX=1;exitY=0.25;exitDx=0;exitDy=0;" edge="1" parent="1" source="p_vRB4R4y17Bd1J3rTZT-34" target="p_vRB4R4y17Bd1J3rTZT-39">
          <mxGeometry relative="1" as="geometry" />
        </mxCell>
        <mxCell id="p_vRB4R4y17Bd1J3rTZT-45" style="edgeStyle=orthogonalEdgeStyle;rounded=0;orthogonalLoop=1;jettySize=auto;html=1;exitX=0.75;exitY=1;exitDx=0;exitDy=0;entryX=0;entryY=0.75;entryDx=0;entryDy=0;" edge="1" parent="1" source="p_vRB4R4y17Bd1J3rTZT-34" target="p_vRB4R4y17Bd1J3rTZT-41">
          <mxGeometry relative="1" as="geometry" />
        </mxCell>
        <mxCell id="p_vRB4R4y17Bd1J3rTZT-64" style="edgeStyle=orthogonalEdgeStyle;rounded=0;orthogonalLoop=1;jettySize=auto;html=1;exitX=1;exitY=0.75;exitDx=0;exitDy=0;entryX=0;entryY=0.75;entryDx=0;entryDy=0;" edge="1" parent="1" source="p_vRB4R4y17Bd1J3rTZT-34" target="p_vRB4R4y17Bd1J3rTZT-40">
          <mxGeometry relative="1" as="geometry" />
        </mxCell>
        <mxCell id="p_vRB4R4y17Bd1J3rTZT-34" value="Nome" style="rounded=1;whiteSpace=wrap;html=1;fillColor=#d5e8d4;gradientColor=#97d077;strokeColor=#82b366;" vertex="1" parent="1">
          <mxGeometry x="950" y="-80" width="80" height="35" as="geometry" />
        </mxCell>
        <mxCell id="AQnSwi48H9AKD2U_IpFZ-33" style="edgeStyle=orthogonalEdgeStyle;rounded=0;orthogonalLoop=1;jettySize=auto;html=1;exitX=1;exitY=0.25;exitDx=0;exitDy=0;" edge="1" parent="1" source="p_vRB4R4y17Bd1J3rTZT-36" target="AQnSwi48H9AKD2U_IpFZ-32">
          <mxGeometry relative="1" as="geometry" />
        </mxCell>
        <mxCell id="p_vRB4R4y17Bd1J3rTZT-36" value="Texto 2 - 14 caracteres" style="rounded=1;whiteSpace=wrap;html=1;fillColor=#d5e8d4;gradientColor=#97d077;strokeColor=#82b366;" vertex="1" parent="1">
          <mxGeometry x="1060" y="-150" width="110" height="25" as="geometry" />
        </mxCell>
        <mxCell id="AQnSwi48H9AKD2U_IpFZ-34" style="edgeStyle=orthogonalEdgeStyle;rounded=0;orthogonalLoop=1;jettySize=auto;html=1;exitX=1;exitY=0.5;exitDx=0;exitDy=0;entryX=0.25;entryY=0;entryDx=0;entryDy=0;" edge="1" parent="1" source="p_vRB4R4y17Bd1J3rTZT-39" target="AQnSwi48H9AKD2U_IpFZ-32">
          <mxGeometry relative="1" as="geometry" />
        </mxCell>
        <mxCell id="p_vRB4R4y17Bd1J3rTZT-39" value="Letras Latinas" style="rounded=1;whiteSpace=wrap;html=1;fillColor=#d5e8d4;gradientColor=#97d077;strokeColor=#82b366;" vertex="1" parent="1">
          <mxGeometry x="1070" y="-105" width="110" height="25" as="geometry" />
        </mxCell>
        <mxCell id="p_vRB4R4y17Bd1J3rTZT-40" value="Apenas 1 Espaço" style="rounded=1;whiteSpace=wrap;html=1;fillColor=#d5e8d4;gradientColor=#97d077;strokeColor=#82b366;" vertex="1" parent="1">
          <mxGeometry x="1070" y="-60" width="110" height="25" as="geometry" />
        </mxCell>
        <mxCell id="AQnSwi48H9AKD2U_IpFZ-36" style="edgeStyle=orthogonalEdgeStyle;rounded=0;orthogonalLoop=1;jettySize=auto;html=1;exitX=1;exitY=0.5;exitDx=0;exitDy=0;entryX=0;entryY=0.25;entryDx=0;entryDy=0;" edge="1" parent="1" source="p_vRB4R4y17Bd1J3rTZT-41" target="AQnSwi48H9AKD2U_IpFZ-32">
          <mxGeometry relative="1" as="geometry" />
        </mxCell>
        <mxCell id="p_vRB4R4y17Bd1J3rTZT-41" value="Apenas 1 Hífen" style="rounded=1;whiteSpace=wrap;html=1;fillColor=#d5e8d4;gradientColor=#97d077;strokeColor=#82b366;" vertex="1" parent="1">
          <mxGeometry x="1070" width="110" height="25" as="geometry" />
        </mxCell>
        <mxCell id="p_vRB4R4y17Bd1J3rTZT-46" style="edgeStyle=orthogonalEdgeStyle;rounded=0;orthogonalLoop=1;jettySize=auto;html=1;exitX=0.25;exitY=0;exitDx=0;exitDy=0;entryX=0.375;entryY=1.143;entryDx=0;entryDy=0;entryPerimeter=0;strokeWidth=2;" edge="1" parent="1" source="p_vRB4R4y17Bd1J3rTZT-29" target="p_vRB4R4y17Bd1J3rTZT-34">
          <mxGeometry relative="1" as="geometry" />
        </mxCell>
        <mxCell id="p_vRB4R4y17Bd1J3rTZT-56" style="edgeStyle=orthogonalEdgeStyle;rounded=0;orthogonalLoop=1;jettySize=auto;html=1;exitX=0.75;exitY=0;exitDx=0;exitDy=0;entryX=0;entryY=0.25;entryDx=0;entryDy=0;" edge="1" parent="1" source="p_vRB4R4y17Bd1J3rTZT-48" target="p_vRB4R4y17Bd1J3rTZT-50">
          <mxGeometry relative="1" as="geometry">
            <mxPoint x="1080" y="160" as="targetPoint" />
          </mxGeometry>
        </mxCell>
        <mxCell id="p_vRB4R4y17Bd1J3rTZT-66" style="edgeStyle=orthogonalEdgeStyle;rounded=0;orthogonalLoop=1;jettySize=auto;html=1;exitX=1;exitY=0.5;exitDx=0;exitDy=0;entryX=0;entryY=0.75;entryDx=0;entryDy=0;" edge="1" parent="1" source="p_vRB4R4y17Bd1J3rTZT-48" target="p_vRB4R4y17Bd1J3rTZT-51">
          <mxGeometry relative="1" as="geometry" />
        </mxCell>
        <mxCell id="p_vRB4R4y17Bd1J3rTZT-67" style="edgeStyle=orthogonalEdgeStyle;rounded=0;orthogonalLoop=1;jettySize=auto;html=1;exitX=1;exitY=1;exitDx=0;exitDy=0;entryX=0;entryY=0.75;entryDx=0;entryDy=0;" edge="1" parent="1" source="p_vRB4R4y17Bd1J3rTZT-48" target="p_vRB4R4y17Bd1J3rTZT-52">
          <mxGeometry relative="1" as="geometry" />
        </mxCell>
        <mxCell id="p_vRB4R4y17Bd1J3rTZT-68" style="edgeStyle=orthogonalEdgeStyle;rounded=0;orthogonalLoop=1;jettySize=auto;html=1;exitX=0.75;exitY=1;exitDx=0;exitDy=0;entryX=0;entryY=0.5;entryDx=0;entryDy=0;" edge="1" parent="1" source="p_vRB4R4y17Bd1J3rTZT-48" target="p_vRB4R4y17Bd1J3rTZT-54">
          <mxGeometry relative="1" as="geometry" />
        </mxCell>
        <mxCell id="p_vRB4R4y17Bd1J3rTZT-48" value="Sobrenome" style="rounded=1;whiteSpace=wrap;html=1;fillColor=#d5e8d4;gradientColor=#97d077;strokeColor=#82b366;" vertex="1" parent="1">
          <mxGeometry x="990" y="70" width="80" height="35" as="geometry" />
        </mxCell>
        <mxCell id="p_vRB4R4y17Bd1J3rTZT-49" style="edgeStyle=orthogonalEdgeStyle;rounded=0;orthogonalLoop=1;jettySize=auto;html=1;exitX=0.75;exitY=0;exitDx=0;exitDy=0;strokeWidth=2;entryX=0.638;entryY=0.971;entryDx=0;entryDy=0;entryPerimeter=0;" edge="1" parent="1" source="p_vRB4R4y17Bd1J3rTZT-29" target="p_vRB4R4y17Bd1J3rTZT-48">
          <mxGeometry relative="1" as="geometry">
            <mxPoint x="1039" y="230" as="targetPoint" />
            <Array as="points">
              <mxPoint x="1040" y="223" />
            </Array>
          </mxGeometry>
        </mxCell>
        <mxCell id="AQnSwi48H9AKD2U_IpFZ-37" style="edgeStyle=orthogonalEdgeStyle;rounded=0;orthogonalLoop=1;jettySize=auto;html=1;exitX=1;exitY=0.25;exitDx=0;exitDy=0;entryX=0;entryY=0.5;entryDx=0;entryDy=0;" edge="1" parent="1" source="p_vRB4R4y17Bd1J3rTZT-50" target="AQnSwi48H9AKD2U_IpFZ-32">
          <mxGeometry relative="1" as="geometry" />
        </mxCell>
        <mxCell id="p_vRB4R4y17Bd1J3rTZT-50" value="Texto 2 - 14 caracteres" style="rounded=1;whiteSpace=wrap;html=1;fillColor=#d5e8d4;gradientColor=#97d077;strokeColor=#82b366;" vertex="1" parent="1">
          <mxGeometry x="1100" y="50" width="110" height="25" as="geometry" />
        </mxCell>
        <mxCell id="p_vRB4R4y17Bd1J3rTZT-51" value="Letras Latinas" style="rounded=1;whiteSpace=wrap;html=1;fillColor=#d5e8d4;gradientColor=#97d077;strokeColor=#82b366;" vertex="1" parent="1">
          <mxGeometry x="1105" y="105" width="110" height="25" as="geometry" />
        </mxCell>
        <mxCell id="p_vRB4R4y17Bd1J3rTZT-52" value="Apenas 1 Espaço" style="rounded=1;whiteSpace=wrap;html=1;fillColor=#d5e8d4;gradientColor=#97d077;strokeColor=#82b366;" vertex="1" parent="1">
          <mxGeometry x="1105" y="150" width="110" height="25" as="geometry" />
        </mxCell>
        <mxCell id="p_vRB4R4y17Bd1J3rTZT-54" value="Apenas 1 Hífen" style="rounded=1;whiteSpace=wrap;html=1;fillColor=#d5e8d4;gradientColor=#97d077;strokeColor=#82b366;" vertex="1" parent="1">
          <mxGeometry x="1105" y="190" width="110" height="25" as="geometry" />
        </mxCell>
        <mxCell id="p_vRB4R4y17Bd1J3rTZT-78" style="edgeStyle=orthogonalEdgeStyle;rounded=0;orthogonalLoop=1;jettySize=auto;html=1;exitX=0.75;exitY=0;exitDx=0;exitDy=0;entryX=0;entryY=0.5;entryDx=0;entryDy=0;" edge="1" parent="1" source="p_vRB4R4y17Bd1J3rTZT-61" target="p_vRB4R4y17Bd1J3rTZT-74">
          <mxGeometry relative="1" as="geometry" />
        </mxCell>
        <mxCell id="p_vRB4R4y17Bd1J3rTZT-79" style="edgeStyle=orthogonalEdgeStyle;rounded=0;orthogonalLoop=1;jettySize=auto;html=1;exitX=1;exitY=0;exitDx=0;exitDy=0;entryX=0;entryY=0.25;entryDx=0;entryDy=0;" edge="1" parent="1" source="p_vRB4R4y17Bd1J3rTZT-61" target="p_vRB4R4y17Bd1J3rTZT-75">
          <mxGeometry relative="1" as="geometry" />
        </mxCell>
        <mxCell id="p_vRB4R4y17Bd1J3rTZT-81" style="edgeStyle=orthogonalEdgeStyle;rounded=0;orthogonalLoop=1;jettySize=auto;html=1;exitX=0.75;exitY=1;exitDx=0;exitDy=0;entryX=0;entryY=0.75;entryDx=0;entryDy=0;" edge="1" parent="1" source="p_vRB4R4y17Bd1J3rTZT-61" target="p_vRB4R4y17Bd1J3rTZT-76">
          <mxGeometry relative="1" as="geometry" />
        </mxCell>
        <mxCell id="p_vRB4R4y17Bd1J3rTZT-82" style="edgeStyle=orthogonalEdgeStyle;rounded=0;orthogonalLoop=1;jettySize=auto;html=1;exitX=0.5;exitY=1;exitDx=0;exitDy=0;entryX=0;entryY=0.75;entryDx=0;entryDy=0;" edge="1" parent="1" source="p_vRB4R4y17Bd1J3rTZT-61" target="p_vRB4R4y17Bd1J3rTZT-77">
          <mxGeometry relative="1" as="geometry" />
        </mxCell>
        <mxCell id="p_vRB4R4y17Bd1J3rTZT-61" value="Data de Nascimento" style="rounded=1;whiteSpace=wrap;html=1;fillColor=#d5e8d4;gradientColor=#97d077;strokeColor=#82b366;" vertex="1" parent="1">
          <mxGeometry x="1105" y="285" width="80" height="35" as="geometry" />
        </mxCell>
        <mxCell id="AQnSwi48H9AKD2U_IpFZ-41" style="edgeStyle=orthogonalEdgeStyle;rounded=0;orthogonalLoop=1;jettySize=auto;html=1;exitX=1;exitY=0.75;exitDx=0;exitDy=0;entryX=0.25;entryY=1;entryDx=0;entryDy=0;" edge="1" parent="1" source="p_vRB4R4y17Bd1J3rTZT-74" target="AQnSwi48H9AKD2U_IpFZ-32">
          <mxGeometry relative="1" as="geometry" />
        </mxCell>
        <mxCell id="p_vRB4R4y17Bd1J3rTZT-74" value="Formato dd.mm.aaaa" style="rounded=1;whiteSpace=wrap;html=1;fillColor=#d5e8d4;gradientColor=#97d077;strokeColor=#82b366;" vertex="1" parent="1">
          <mxGeometry x="1210" y="235" width="140" height="25" as="geometry" />
        </mxCell>
        <mxCell id="AQnSwi48H9AKD2U_IpFZ-42" style="edgeStyle=orthogonalEdgeStyle;rounded=0;orthogonalLoop=1;jettySize=auto;html=1;exitX=1;exitY=0.75;exitDx=0;exitDy=0;" edge="1" parent="1" source="p_vRB4R4y17Bd1J3rTZT-75">
          <mxGeometry relative="1" as="geometry">
            <mxPoint x="1610" y="170" as="targetPoint" />
          </mxGeometry>
        </mxCell>
        <mxCell id="p_vRB4R4y17Bd1J3rTZT-75" value="dd de 01 à 31" style="rounded=1;whiteSpace=wrap;html=1;fillColor=#d5e8d4;gradientColor=#97d077;strokeColor=#82b366;" vertex="1" parent="1">
          <mxGeometry x="1210" y="277.5" width="140" height="25" as="geometry" />
        </mxCell>
        <mxCell id="AQnSwi48H9AKD2U_IpFZ-43" style="edgeStyle=orthogonalEdgeStyle;rounded=0;orthogonalLoop=1;jettySize=auto;html=1;exitX=1;exitY=0.75;exitDx=0;exitDy=0;" edge="1" parent="1" source="p_vRB4R4y17Bd1J3rTZT-76">
          <mxGeometry relative="1" as="geometry">
            <mxPoint x="1650" y="170" as="targetPoint" />
          </mxGeometry>
        </mxCell>
        <mxCell id="p_vRB4R4y17Bd1J3rTZT-76" value="mm de 1 à 12" style="rounded=1;whiteSpace=wrap;html=1;fillColor=#d5e8d4;gradientColor=#97d077;strokeColor=#82b366;" vertex="1" parent="1">
          <mxGeometry x="1210" y="320" width="140" height="25" as="geometry" />
        </mxCell>
        <mxCell id="AQnSwi48H9AKD2U_IpFZ-44" style="edgeStyle=orthogonalEdgeStyle;rounded=0;orthogonalLoop=1;jettySize=auto;html=1;exitX=1;exitY=0.25;exitDx=0;exitDy=0;" edge="1" parent="1" source="p_vRB4R4y17Bd1J3rTZT-77">
          <mxGeometry relative="1" as="geometry">
            <mxPoint x="1680" y="170" as="targetPoint" />
          </mxGeometry>
        </mxCell>
        <mxCell id="p_vRB4R4y17Bd1J3rTZT-77" value="aaaa de 1880 à 2006" style="rounded=1;whiteSpace=wrap;html=1;fillColor=#d5e8d4;gradientColor=#97d077;strokeColor=#82b366;" vertex="1" parent="1">
          <mxGeometry x="1210" y="365" width="140" height="25" as="geometry" />
        </mxCell>
        <mxCell id="p_vRB4R4y17Bd1J3rTZT-89" style="edgeStyle=orthogonalEdgeStyle;rounded=0;orthogonalLoop=1;jettySize=auto;html=1;exitX=1;exitY=0.25;exitDx=0;exitDy=0;entryX=0;entryY=0.5;entryDx=0;entryDy=0;" edge="1" parent="1" source="p_vRB4R4y17Bd1J3rTZT-83" target="p_vRB4R4y17Bd1J3rTZT-85">
          <mxGeometry relative="1" as="geometry" />
        </mxCell>
        <mxCell id="p_vRB4R4y17Bd1J3rTZT-90" style="edgeStyle=orthogonalEdgeStyle;rounded=0;orthogonalLoop=1;jettySize=auto;html=1;exitX=0.75;exitY=1;exitDx=0;exitDy=0;entryX=0;entryY=0.75;entryDx=0;entryDy=0;" edge="1" parent="1" source="p_vRB4R4y17Bd1J3rTZT-83" target="p_vRB4R4y17Bd1J3rTZT-86">
          <mxGeometry relative="1" as="geometry" />
        </mxCell>
        <mxCell id="p_vRB4R4y17Bd1J3rTZT-91" style="edgeStyle=orthogonalEdgeStyle;rounded=0;orthogonalLoop=1;jettySize=auto;html=1;exitX=0.5;exitY=1;exitDx=0;exitDy=0;entryX=0;entryY=0.75;entryDx=0;entryDy=0;" edge="1" parent="1" source="p_vRB4R4y17Bd1J3rTZT-83" target="p_vRB4R4y17Bd1J3rTZT-87">
          <mxGeometry relative="1" as="geometry" />
        </mxCell>
        <mxCell id="p_vRB4R4y17Bd1J3rTZT-83" value="Numero de telefone" style="rounded=1;whiteSpace=wrap;html=1;fillColor=#d5e8d4;gradientColor=#97d077;strokeColor=#82b366;" vertex="1" parent="1">
          <mxGeometry x="1115" y="415" width="80" height="35" as="geometry" />
        </mxCell>
        <mxCell id="p_vRB4R4y17Bd1J3rTZT-85" value="Formato nn nn nnnnnn" style="rounded=1;whiteSpace=wrap;html=1;fillColor=#d5e8d4;gradientColor=#97d077;strokeColor=#82b366;" vertex="1" parent="1">
          <mxGeometry x="1215" y="407.5" width="140" height="25" as="geometry" />
        </mxCell>
        <mxCell id="p_vRB4R4y17Bd1J3rTZT-86" value="nn de 01 à 99" style="rounded=1;whiteSpace=wrap;html=1;fillColor=#d5e8d4;gradientColor=#97d077;strokeColor=#82b366;" vertex="1" parent="1">
          <mxGeometry x="1215" y="460" width="140" height="25" as="geometry" />
        </mxCell>
        <mxCell id="p_vRB4R4y17Bd1J3rTZT-87" value="nnnnnn de 000001 à 999999" style="rounded=1;whiteSpace=wrap;html=1;fillColor=#d5e8d4;gradientColor=#97d077;strokeColor=#82b366;" vertex="1" parent="1">
          <mxGeometry x="1215" y="510" width="140" height="25" as="geometry" />
        </mxCell>
        <mxCell id="p_vRB4R4y17Bd1J3rTZT-105" style="edgeStyle=orthogonalEdgeStyle;rounded=0;orthogonalLoop=1;jettySize=auto;html=1;exitX=0;exitY=0.25;exitDx=0;exitDy=0;entryX=0.5;entryY=1;entryDx=0;entryDy=0;" edge="1" parent="1" source="p_vRB4R4y17Bd1J3rTZT-93" target="p_vRB4R4y17Bd1J3rTZT-94">
          <mxGeometry relative="1" as="geometry" />
        </mxCell>
        <mxCell id="p_vRB4R4y17Bd1J3rTZT-106" style="edgeStyle=orthogonalEdgeStyle;rounded=0;orthogonalLoop=1;jettySize=auto;html=1;exitX=0.25;exitY=0;exitDx=0;exitDy=0;entryX=0.5;entryY=1;entryDx=0;entryDy=0;" edge="1" parent="1" source="p_vRB4R4y17Bd1J3rTZT-93" target="p_vRB4R4y17Bd1J3rTZT-95">
          <mxGeometry relative="1" as="geometry" />
        </mxCell>
        <mxCell id="p_vRB4R4y17Bd1J3rTZT-107" style="edgeStyle=orthogonalEdgeStyle;rounded=0;orthogonalLoop=1;jettySize=auto;html=1;exitX=1;exitY=0;exitDx=0;exitDy=0;" edge="1" parent="1" source="p_vRB4R4y17Bd1J3rTZT-93" target="p_vRB4R4y17Bd1J3rTZT-96">
          <mxGeometry relative="1" as="geometry" />
        </mxCell>
        <mxCell id="p_vRB4R4y17Bd1J3rTZT-108" style="edgeStyle=orthogonalEdgeStyle;rounded=0;orthogonalLoop=1;jettySize=auto;html=1;exitX=1;exitY=0.5;exitDx=0;exitDy=0;entryX=0.5;entryY=1;entryDx=0;entryDy=0;" edge="1" parent="1" source="p_vRB4R4y17Bd1J3rTZT-93" target="p_vRB4R4y17Bd1J3rTZT-98">
          <mxGeometry relative="1" as="geometry" />
        </mxCell>
        <mxCell id="p_vRB4R4y17Bd1J3rTZT-93" value="Campos" style="rounded=1;whiteSpace=wrap;html=1;fillColor=#e51400;strokeColor=#B20000;fontColor=#ffffff;" vertex="1" parent="1">
          <mxGeometry x="1010" y="810" width="120" height="60" as="geometry" />
        </mxCell>
        <mxCell id="p_vRB4R4y17Bd1J3rTZT-101" style="edgeStyle=orthogonalEdgeStyle;rounded=0;orthogonalLoop=1;jettySize=auto;html=1;exitX=0.5;exitY=0;exitDx=0;exitDy=0;entryX=0.5;entryY=1;entryDx=0;entryDy=0;" edge="1" parent="1" source="p_vRB4R4y17Bd1J3rTZT-94" target="p_vRB4R4y17Bd1J3rTZT-99">
          <mxGeometry relative="1" as="geometry" />
        </mxCell>
        <mxCell id="p_vRB4R4y17Bd1J3rTZT-94" value="Nome" style="rounded=1;whiteSpace=wrap;html=1;fillColor=#e51400;strokeColor=#B20000;fontColor=#ffffff;" vertex="1" parent="1">
          <mxGeometry x="900" y="740" width="80" height="35" as="geometry" />
        </mxCell>
        <mxCell id="p_vRB4R4y17Bd1J3rTZT-103" style="edgeStyle=orthogonalEdgeStyle;rounded=0;orthogonalLoop=1;jettySize=auto;html=1;exitX=0.5;exitY=0;exitDx=0;exitDy=0;entryX=0.5;entryY=1;entryDx=0;entryDy=0;" edge="1" parent="1" source="p_vRB4R4y17Bd1J3rTZT-95" target="p_vRB4R4y17Bd1J3rTZT-102">
          <mxGeometry relative="1" as="geometry" />
        </mxCell>
        <mxCell id="p_vRB4R4y17Bd1J3rTZT-95" value="Sobrenome" style="rounded=1;whiteSpace=wrap;html=1;fillColor=#e51400;strokeColor=#B20000;fontColor=#ffffff;" vertex="1" parent="1">
          <mxGeometry x="1000" y="740" width="80" height="35" as="geometry" />
        </mxCell>
        <mxCell id="p_vRB4R4y17Bd1J3rTZT-96" value="Data de Nascimento" style="rounded=1;whiteSpace=wrap;html=1;fillColor=#e51400;strokeColor=#B20000;fontColor=#ffffff;" vertex="1" parent="1">
          <mxGeometry x="1100" y="740" width="80" height="35" as="geometry" />
        </mxCell>
        <mxCell id="p_vRB4R4y17Bd1J3rTZT-98" value="Numero de telefone" style="rounded=1;whiteSpace=wrap;html=1;fillColor=#e51400;strokeColor=#B20000;fontColor=#ffffff;" vertex="1" parent="1">
          <mxGeometry x="1200.5" y="740" width="80" height="35" as="geometry" />
        </mxCell>
        <mxCell id="p_vRB4R4y17Bd1J3rTZT-136" style="edgeStyle=orthogonalEdgeStyle;rounded=0;orthogonalLoop=1;jettySize=auto;html=1;exitX=0.5;exitY=0;exitDx=0;exitDy=0;entryX=0;entryY=0.25;entryDx=0;entryDy=0;" edge="1" parent="1" source="p_vRB4R4y17Bd1J3rTZT-99" target="p_vRB4R4y17Bd1J3rTZT-109">
          <mxGeometry relative="1" as="geometry" />
        </mxCell>
        <mxCell id="p_vRB4R4y17Bd1J3rTZT-99" value="Mensagem de erro &quot;Insira o nome correto&amp;nbsp;" style="rounded=1;whiteSpace=wrap;html=1;fillColor=#e51400;strokeColor=#B20000;fontColor=#ffffff;" vertex="1" parent="1">
          <mxGeometry x="895" y="660" width="90" height="50" as="geometry" />
        </mxCell>
        <mxCell id="p_vRB4R4y17Bd1J3rTZT-102" value="Mensagem de erro &quot;Insira o Sobrenome correto&amp;nbsp;" style="rounded=1;whiteSpace=wrap;html=1;fillColor=#e51400;strokeColor=#B20000;fontColor=#ffffff;" vertex="1" parent="1">
          <mxGeometry x="995" y="660" width="90" height="50" as="geometry" />
        </mxCell>
        <mxCell id="p_vRB4R4y17Bd1J3rTZT-109" value="Usuário não consegue enviar os documentos" style="rounded=1;whiteSpace=wrap;html=1;fillColor=#e51400;fontColor=#ffffff;strokeColor=#B20000;" vertex="1" parent="1">
          <mxGeometry x="1030" y="550" width="120" height="60" as="geometry" />
        </mxCell>
        <mxCell id="p_vRB4R4y17Bd1J3rTZT-126" style="edgeStyle=orthogonalEdgeStyle;rounded=0;orthogonalLoop=1;jettySize=auto;html=1;exitX=0;exitY=0.5;exitDx=0;exitDy=0;" edge="1" parent="1" source="p_vRB4R4y17Bd1J3rTZT-110" target="p_vRB4R4y17Bd1J3rTZT-122">
          <mxGeometry relative="1" as="geometry" />
        </mxCell>
        <mxCell id="p_vRB4R4y17Bd1J3rTZT-110" value="Nome" style="rounded=1;whiteSpace=wrap;html=1;fillColor=#e51400;strokeColor=#B20000;fontColor=#ffffff;" vertex="1" parent="1">
          <mxGeometry x="-440" y="397.5" width="80" height="35" as="geometry" />
        </mxCell>
        <mxCell id="p_vRB4R4y17Bd1J3rTZT-127" style="edgeStyle=orthogonalEdgeStyle;rounded=0;orthogonalLoop=1;jettySize=auto;html=1;exitX=0;exitY=0.5;exitDx=0;exitDy=0;" edge="1" parent="1" source="p_vRB4R4y17Bd1J3rTZT-111" target="p_vRB4R4y17Bd1J3rTZT-123">
          <mxGeometry relative="1" as="geometry" />
        </mxCell>
        <mxCell id="p_vRB4R4y17Bd1J3rTZT-111" value="Sobrenome&lt;span style=&quot;white-space: pre;&quot;&gt;&#x9;&lt;/span&gt;" style="rounded=1;whiteSpace=wrap;html=1;fillColor=#e51400;strokeColor=#B20000;fontColor=#ffffff;" vertex="1" parent="1">
          <mxGeometry x="-440" y="467.5" width="80" height="35" as="geometry" />
        </mxCell>
        <mxCell id="p_vRB4R4y17Bd1J3rTZT-128" style="edgeStyle=orthogonalEdgeStyle;rounded=0;orthogonalLoop=1;jettySize=auto;html=1;exitX=0;exitY=0.5;exitDx=0;exitDy=0;" edge="1" parent="1" source="p_vRB4R4y17Bd1J3rTZT-112" target="p_vRB4R4y17Bd1J3rTZT-124">
          <mxGeometry relative="1" as="geometry" />
        </mxCell>
        <mxCell id="p_vRB4R4y17Bd1J3rTZT-112" value="Data de Nascimento" style="rounded=1;whiteSpace=wrap;html=1;fillColor=#e51400;strokeColor=#B20000;fontColor=#ffffff;" vertex="1" parent="1">
          <mxGeometry x="-440" y="542.5" width="80" height="35" as="geometry" />
        </mxCell>
        <mxCell id="p_vRB4R4y17Bd1J3rTZT-129" style="edgeStyle=orthogonalEdgeStyle;rounded=0;orthogonalLoop=1;jettySize=auto;html=1;exitX=0;exitY=0.5;exitDx=0;exitDy=0;" edge="1" parent="1" source="p_vRB4R4y17Bd1J3rTZT-113" target="p_vRB4R4y17Bd1J3rTZT-125">
          <mxGeometry relative="1" as="geometry" />
        </mxCell>
        <mxCell id="p_vRB4R4y17Bd1J3rTZT-113" value="Telefone" style="rounded=1;whiteSpace=wrap;html=1;fillColor=#e51400;strokeColor=#B20000;fontColor=#ffffff;" vertex="1" parent="1">
          <mxGeometry x="-440" y="610" width="80" height="35" as="geometry" />
        </mxCell>
        <mxCell id="p_vRB4R4y17Bd1J3rTZT-115" style="edgeStyle=orthogonalEdgeStyle;rounded=0;orthogonalLoop=1;jettySize=auto;html=1;exitX=0.25;exitY=0;exitDx=0;exitDy=0;entryX=1;entryY=0.25;entryDx=0;entryDy=0;" edge="1" parent="1" source="p_vRB4R4y17Bd1J3rTZT-114" target="p_vRB4R4y17Bd1J3rTZT-110">
          <mxGeometry relative="1" as="geometry" />
        </mxCell>
        <mxCell id="p_vRB4R4y17Bd1J3rTZT-116" style="edgeStyle=orthogonalEdgeStyle;rounded=0;orthogonalLoop=1;jettySize=auto;html=1;exitX=0;exitY=0.25;exitDx=0;exitDy=0;entryX=1;entryY=0.5;entryDx=0;entryDy=0;" edge="1" parent="1" source="p_vRB4R4y17Bd1J3rTZT-114" target="p_vRB4R4y17Bd1J3rTZT-111">
          <mxGeometry relative="1" as="geometry" />
        </mxCell>
        <mxCell id="p_vRB4R4y17Bd1J3rTZT-117" style="edgeStyle=orthogonalEdgeStyle;rounded=0;orthogonalLoop=1;jettySize=auto;html=1;exitX=0;exitY=0.75;exitDx=0;exitDy=0;entryX=1;entryY=0.5;entryDx=0;entryDy=0;" edge="1" parent="1" source="p_vRB4R4y17Bd1J3rTZT-114" target="p_vRB4R4y17Bd1J3rTZT-112">
          <mxGeometry relative="1" as="geometry" />
        </mxCell>
        <mxCell id="p_vRB4R4y17Bd1J3rTZT-118" style="edgeStyle=orthogonalEdgeStyle;rounded=0;orthogonalLoop=1;jettySize=auto;html=1;exitX=0.25;exitY=1;exitDx=0;exitDy=0;entryX=1;entryY=0.75;entryDx=0;entryDy=0;" edge="1" parent="1" source="p_vRB4R4y17Bd1J3rTZT-114" target="p_vRB4R4y17Bd1J3rTZT-113">
          <mxGeometry relative="1" as="geometry" />
        </mxCell>
        <mxCell id="p_vRB4R4y17Bd1J3rTZT-114" value="Campos" style="rounded=1;whiteSpace=wrap;html=1;fillColor=#e51400;strokeColor=#B20000;fontColor=#ffffff;" vertex="1" parent="1">
          <mxGeometry x="-300" y="512.5" width="90" height="60" as="geometry" />
        </mxCell>
        <mxCell id="p_vRB4R4y17Bd1J3rTZT-119" value="&quot;O botao adicionar carteira não muda de&amp;nbsp; cor para o usuário clicar&amp;nbsp;" style="rounded=1;whiteSpace=wrap;html=1;fillColor=#e51400;fontColor=#ffffff;strokeColor=#B20000;" vertex="1" parent="1">
          <mxGeometry x="-770" y="502.5" width="120" height="60" as="geometry" />
        </mxCell>
        <mxCell id="p_vRB4R4y17Bd1J3rTZT-133" style="edgeStyle=orthogonalEdgeStyle;rounded=0;orthogonalLoop=1;jettySize=auto;html=1;exitX=0;exitY=0.25;exitDx=0;exitDy=0;" edge="1" parent="1" source="p_vRB4R4y17Bd1J3rTZT-122">
          <mxGeometry relative="1" as="geometry">
            <mxPoint x="-680" y="500" as="targetPoint" />
          </mxGeometry>
        </mxCell>
        <mxCell id="p_vRB4R4y17Bd1J3rTZT-122" value="Mensagem de erro &quot;Insira o nome correto&amp;nbsp;" style="rounded=1;whiteSpace=wrap;html=1;fillColor=#e51400;strokeColor=#B20000;fontColor=#ffffff;" vertex="1" parent="1">
          <mxGeometry x="-570" y="390" width="90" height="50" as="geometry" />
        </mxCell>
        <mxCell id="p_vRB4R4y17Bd1J3rTZT-132" style="edgeStyle=orthogonalEdgeStyle;rounded=0;orthogonalLoop=1;jettySize=auto;html=1;exitX=0;exitY=0.5;exitDx=0;exitDy=0;entryX=1;entryY=0.25;entryDx=0;entryDy=0;" edge="1" parent="1" source="p_vRB4R4y17Bd1J3rTZT-123" target="p_vRB4R4y17Bd1J3rTZT-119">
          <mxGeometry relative="1" as="geometry" />
        </mxCell>
        <mxCell id="p_vRB4R4y17Bd1J3rTZT-123" value="Mensagem de erro &quot;Insira o Sobrenome correto&amp;nbsp;" style="rounded=1;whiteSpace=wrap;html=1;fillColor=#e51400;strokeColor=#B20000;fontColor=#ffffff;" vertex="1" parent="1">
          <mxGeometry x="-570" y="467.5" width="90" height="50" as="geometry" />
        </mxCell>
        <mxCell id="p_vRB4R4y17Bd1J3rTZT-124" value="Nenhuma mensagem de erro é exibida" style="rounded=1;whiteSpace=wrap;html=1;fillColor=#e51400;strokeColor=#B20000;fontColor=#ffffff;" vertex="1" parent="1">
          <mxGeometry x="-570" y="540" width="90" height="50" as="geometry" />
        </mxCell>
        <mxCell id="p_vRB4R4y17Bd1J3rTZT-130" style="edgeStyle=orthogonalEdgeStyle;rounded=0;orthogonalLoop=1;jettySize=auto;html=1;exitX=0;exitY=0.5;exitDx=0;exitDy=0;" edge="1" parent="1" source="p_vRB4R4y17Bd1J3rTZT-125">
          <mxGeometry relative="1" as="geometry">
            <mxPoint x="-680" y="570" as="targetPoint" />
          </mxGeometry>
        </mxCell>
        <mxCell id="p_vRB4R4y17Bd1J3rTZT-125" value="Nenhuma mensagem de erro é exibida" style="rounded=1;whiteSpace=wrap;html=1;fillColor=#e51400;strokeColor=#B20000;fontColor=#ffffff;" vertex="1" parent="1">
          <mxGeometry x="-570" y="610" width="90" height="50" as="geometry" />
        </mxCell>
        <mxCell id="p_vRB4R4y17Bd1J3rTZT-131" style="edgeStyle=orthogonalEdgeStyle;rounded=0;orthogonalLoop=1;jettySize=auto;html=1;exitX=0;exitY=0.5;exitDx=0;exitDy=0;entryX=1.025;entryY=0.908;entryDx=0;entryDy=0;entryPerimeter=0;" edge="1" parent="1" source="p_vRB4R4y17Bd1J3rTZT-124" target="p_vRB4R4y17Bd1J3rTZT-119">
          <mxGeometry relative="1" as="geometry" />
        </mxCell>
        <mxCell id="p_vRB4R4y17Bd1J3rTZT-138" style="edgeStyle=orthogonalEdgeStyle;rounded=0;orthogonalLoop=1;jettySize=auto;html=1;exitX=0.25;exitY=0;exitDx=0;exitDy=0;" edge="1" parent="1" source="p_vRB4R4y17Bd1J3rTZT-134" target="p_vRB4R4y17Bd1J3rTZT-109">
          <mxGeometry relative="1" as="geometry" />
        </mxCell>
        <mxCell id="p_vRB4R4y17Bd1J3rTZT-134" value="Nenhuma mensagem de erro é exibida" style="rounded=1;whiteSpace=wrap;html=1;fillColor=#e51400;strokeColor=#B20000;fontColor=#ffffff;" vertex="1" parent="1">
          <mxGeometry x="1110.5" y="660" width="90" height="50" as="geometry" />
        </mxCell>
        <mxCell id="p_vRB4R4y17Bd1J3rTZT-139" style="edgeStyle=orthogonalEdgeStyle;rounded=0;orthogonalLoop=1;jettySize=auto;html=1;exitX=0.5;exitY=0;exitDx=0;exitDy=0;entryX=1;entryY=0.5;entryDx=0;entryDy=0;" edge="1" parent="1" source="p_vRB4R4y17Bd1J3rTZT-135" target="p_vRB4R4y17Bd1J3rTZT-109">
          <mxGeometry relative="1" as="geometry" />
        </mxCell>
        <mxCell id="p_vRB4R4y17Bd1J3rTZT-135" value="Nenhuma mensagem de erro é exibida" style="rounded=1;whiteSpace=wrap;html=1;fillColor=#e51400;strokeColor=#B20000;fontColor=#ffffff;" vertex="1" parent="1">
          <mxGeometry x="1210" y="660" width="90" height="50" as="geometry" />
        </mxCell>
        <mxCell id="p_vRB4R4y17Bd1J3rTZT-137" style="edgeStyle=orthogonalEdgeStyle;rounded=0;orthogonalLoop=1;jettySize=auto;html=1;exitX=0.5;exitY=0;exitDx=0;exitDy=0;entryX=0.1;entryY=0.983;entryDx=0;entryDy=0;entryPerimeter=0;" edge="1" parent="1" source="p_vRB4R4y17Bd1J3rTZT-102" target="p_vRB4R4y17Bd1J3rTZT-109">
          <mxGeometry relative="1" as="geometry" />
        </mxCell>
        <mxCell id="AQnSwi48H9AKD2U_IpFZ-29" style="edgeStyle=orthogonalEdgeStyle;rounded=0;orthogonalLoop=1;jettySize=auto;html=1;exitX=0;exitY=0;exitDx=0;exitDy=0;entryX=0.5;entryY=1;entryDx=0;entryDy=0;" edge="1" parent="1" source="p_vRB4R4y17Bd1J3rTZT-142" target="AQnSwi48H9AKD2U_IpFZ-25">
          <mxGeometry relative="1" as="geometry" />
        </mxCell>
        <mxCell id="AQnSwi48H9AKD2U_IpFZ-30" style="edgeStyle=orthogonalEdgeStyle;rounded=0;orthogonalLoop=1;jettySize=auto;html=1;exitX=0.25;exitY=0;exitDx=0;exitDy=0;entryX=0.5;entryY=1;entryDx=0;entryDy=0;" edge="1" parent="1" source="p_vRB4R4y17Bd1J3rTZT-142" target="AQnSwi48H9AKD2U_IpFZ-26">
          <mxGeometry relative="1" as="geometry" />
        </mxCell>
        <mxCell id="AQnSwi48H9AKD2U_IpFZ-31" style="edgeStyle=orthogonalEdgeStyle;rounded=0;orthogonalLoop=1;jettySize=auto;html=1;exitX=0.75;exitY=0;exitDx=0;exitDy=0;entryX=0.5;entryY=1;entryDx=0;entryDy=0;" edge="1" parent="1" source="p_vRB4R4y17Bd1J3rTZT-142" target="AQnSwi48H9AKD2U_IpFZ-27">
          <mxGeometry relative="1" as="geometry" />
        </mxCell>
        <mxCell id="p_vRB4R4y17Bd1J3rTZT-142" value="Botões&amp;nbsp;" style="whiteSpace=wrap;html=1;fillColor=#f5f5f5;strokeColor=#666666;rounded=1;gradientColor=#b3b3b3;" vertex="1" parent="1">
          <mxGeometry x="795" y="40" width="130" height="80" as="geometry" />
        </mxCell>
        <mxCell id="AQnSwi48H9AKD2U_IpFZ-1" value="Botão aceito" style="rounded=1;whiteSpace=wrap;html=1;fillColor=#d5e8d4;gradientColor=#97d077;strokeColor=#82b366;" vertex="1" parent="1">
          <mxGeometry x="290" y="1000" width="120" height="60" as="geometry" />
        </mxCell>
        <mxCell id="AQnSwi48H9AKD2U_IpFZ-5" value="Botão adicionar" style="rounded=1;whiteSpace=wrap;html=1;fillColor=#dae8fc;gradientColor=#7ea6e0;strokeColor=#6c8ebf;" vertex="1" parent="1">
          <mxGeometry x="35" y="850" width="120" height="60" as="geometry" />
        </mxCell>
        <mxCell id="AQnSwi48H9AKD2U_IpFZ-7" style="edgeStyle=orthogonalEdgeStyle;rounded=0;orthogonalLoop=1;jettySize=auto;html=1;exitX=0.5;exitY=1;exitDx=0;exitDy=0;entryX=0.112;entryY=-0.096;entryDx=0;entryDy=0;entryPerimeter=0;" edge="1" parent="1" source="p_vRB4R4y17Bd1J3rTZT-15" target="AQnSwi48H9AKD2U_IpFZ-5">
          <mxGeometry relative="1" as="geometry" />
        </mxCell>
        <mxCell id="AQnSwi48H9AKD2U_IpFZ-10" style="edgeStyle=orthogonalEdgeStyle;rounded=0;orthogonalLoop=1;jettySize=auto;html=1;exitX=0.5;exitY=1;exitDx=0;exitDy=0;entryX=0.565;entryY=0;entryDx=0;entryDy=0;entryPerimeter=0;" edge="1" parent="1" source="AQnSwi48H9AKD2U_IpFZ-5" target="p_vRB4R4y17Bd1J3rTZT-24">
          <mxGeometry relative="1" as="geometry" />
        </mxCell>
        <mxCell id="AQnSwi48H9AKD2U_IpFZ-11" value="Botao &quot;fechar&quot; na cor preta" style="rounded=1;whiteSpace=wrap;html=1;fillColor=#000000;fontColor=#ffffff;strokeColor=#006EAF;" vertex="1" parent="1">
          <mxGeometry x="-240" y="165" width="70" height="65" as="geometry" />
        </mxCell>
        <mxCell id="AQnSwi48H9AKD2U_IpFZ-21" style="edgeStyle=orthogonalEdgeStyle;rounded=0;orthogonalLoop=1;jettySize=auto;html=1;exitX=0;exitY=0.5;exitDx=0;exitDy=0;" edge="1" parent="1" source="AQnSwi48H9AKD2U_IpFZ-13">
          <mxGeometry relative="1" as="geometry">
            <mxPoint x="520" y="140" as="targetPoint" />
          </mxGeometry>
        </mxCell>
        <mxCell id="AQnSwi48H9AKD2U_IpFZ-22" style="edgeStyle=orthogonalEdgeStyle;rounded=0;orthogonalLoop=1;jettySize=auto;html=1;exitX=0.25;exitY=0;exitDx=0;exitDy=0;entryX=0.75;entryY=1;entryDx=0;entryDy=0;" edge="1" parent="1" source="AQnSwi48H9AKD2U_IpFZ-13" target="AQnSwi48H9AKD2U_IpFZ-16">
          <mxGeometry relative="1" as="geometry" />
        </mxCell>
        <mxCell id="AQnSwi48H9AKD2U_IpFZ-23" style="edgeStyle=orthogonalEdgeStyle;rounded=0;orthogonalLoop=1;jettySize=auto;html=1;exitX=0.5;exitY=0;exitDx=0;exitDy=0;" edge="1" parent="1" source="AQnSwi48H9AKD2U_IpFZ-13">
          <mxGeometry relative="1" as="geometry">
            <mxPoint x="620" as="targetPoint" />
          </mxGeometry>
        </mxCell>
        <mxCell id="AQnSwi48H9AKD2U_IpFZ-24" style="edgeStyle=orthogonalEdgeStyle;rounded=0;orthogonalLoop=1;jettySize=auto;html=1;exitX=0.75;exitY=0;exitDx=0;exitDy=0;entryX=0.5;entryY=1;entryDx=0;entryDy=0;" edge="1" parent="1" source="AQnSwi48H9AKD2U_IpFZ-13" target="AQnSwi48H9AKD2U_IpFZ-20">
          <mxGeometry relative="1" as="geometry" />
        </mxCell>
        <mxCell id="AQnSwi48H9AKD2U_IpFZ-13" value="Campos" style="rounded=1;whiteSpace=wrap;html=1;fillColor=#f5f5f5;strokeColor=#666666;gradientColor=#b3b3b3;" vertex="1" parent="1">
          <mxGeometry x="600" y="150" width="120" height="60" as="geometry" />
        </mxCell>
        <mxCell id="AQnSwi48H9AKD2U_IpFZ-15" value="Nome" style="rounded=1;whiteSpace=wrap;html=1;fillColor=#f5f5f5;strokeColor=#666666;gradientColor=#b3b3b3;" vertex="1" parent="1">
          <mxGeometry x="490" y="100" width="70" height="30" as="geometry" />
        </mxCell>
        <mxCell id="AQnSwi48H9AKD2U_IpFZ-16" value="Sobrenome" style="rounded=1;whiteSpace=wrap;html=1;fillColor=#f5f5f5;strokeColor=#666666;gradientColor=#b3b3b3;" vertex="1" parent="1">
          <mxGeometry x="515" y="25" width="70" height="30" as="geometry" />
        </mxCell>
        <mxCell id="AQnSwi48H9AKD2U_IpFZ-19" value="Data de Nascimento" style="rounded=1;whiteSpace=wrap;html=1;fillColor=#f5f5f5;strokeColor=#666666;gradientColor=#b3b3b3;" vertex="1" parent="1">
          <mxGeometry x="580" y="-35" width="70" height="30" as="geometry" />
        </mxCell>
        <mxCell id="AQnSwi48H9AKD2U_IpFZ-20" value="Numero de Telefone" style="rounded=1;whiteSpace=wrap;html=1;fillColor=#f5f5f5;strokeColor=#666666;gradientColor=#b3b3b3;" vertex="1" parent="1">
          <mxGeometry x="680" y="60" width="70" height="30" as="geometry" />
        </mxCell>
        <mxCell id="AQnSwi48H9AKD2U_IpFZ-25" value="Adcionar" style="rounded=1;whiteSpace=wrap;html=1;fillColor=#f5f5f5;strokeColor=#666666;gradientColor=#b3b3b3;" vertex="1" parent="1">
          <mxGeometry x="720" y="-35" width="70" height="30" as="geometry" />
        </mxCell>
        <mxCell id="AQnSwi48H9AKD2U_IpFZ-26" value="Cancelar" style="rounded=1;whiteSpace=wrap;html=1;fillColor=#f5f5f5;strokeColor=#666666;gradientColor=#b3b3b3;" vertex="1" parent="1">
          <mxGeometry x="795" y="-90" width="70" height="30" as="geometry" />
        </mxCell>
        <mxCell id="AQnSwi48H9AKD2U_IpFZ-27" value="Fechar" style="rounded=1;whiteSpace=wrap;html=1;fillColor=#f5f5f5;strokeColor=#666666;gradientColor=#b3b3b3;" vertex="1" parent="1">
          <mxGeometry x="880" y="-35" width="70" height="30" as="geometry" />
        </mxCell>
        <mxCell id="AQnSwi48H9AKD2U_IpFZ-47" style="edgeStyle=orthogonalEdgeStyle;rounded=0;orthogonalLoop=1;jettySize=auto;html=1;exitX=1;exitY=0.5;exitDx=0;exitDy=0;entryX=0;entryY=0.5;entryDx=0;entryDy=0;" edge="1" parent="1" source="AQnSwi48H9AKD2U_IpFZ-32" target="AQnSwi48H9AKD2U_IpFZ-46">
          <mxGeometry relative="1" as="geometry" />
        </mxCell>
        <mxCell id="AQnSwi48H9AKD2U_IpFZ-32" value="Botão adicionar" style="rounded=1;whiteSpace=wrap;html=1;fillColor=#d5e8d4;gradientColor=#97d077;strokeColor=#82b366;" vertex="1" parent="1">
          <mxGeometry x="1530" y="15" width="170" height="150" as="geometry" />
        </mxCell>
        <mxCell id="AQnSwi48H9AKD2U_IpFZ-35" style="edgeStyle=orthogonalEdgeStyle;rounded=0;orthogonalLoop=1;jettySize=auto;html=1;exitX=1;exitY=0.5;exitDx=0;exitDy=0;entryX=-0.024;entryY=0.096;entryDx=0;entryDy=0;entryPerimeter=0;" edge="1" parent="1" source="p_vRB4R4y17Bd1J3rTZT-40" target="AQnSwi48H9AKD2U_IpFZ-32">
          <mxGeometry relative="1" as="geometry" />
        </mxCell>
        <mxCell id="AQnSwi48H9AKD2U_IpFZ-38" style="edgeStyle=orthogonalEdgeStyle;rounded=0;orthogonalLoop=1;jettySize=auto;html=1;exitX=1;exitY=0.25;exitDx=0;exitDy=0;entryX=-0.024;entryY=0.664;entryDx=0;entryDy=0;entryPerimeter=0;" edge="1" parent="1" source="p_vRB4R4y17Bd1J3rTZT-51" target="AQnSwi48H9AKD2U_IpFZ-32">
          <mxGeometry relative="1" as="geometry" />
        </mxCell>
        <mxCell id="AQnSwi48H9AKD2U_IpFZ-39" style="edgeStyle=orthogonalEdgeStyle;rounded=0;orthogonalLoop=1;jettySize=auto;html=1;exitX=1;exitY=0.5;exitDx=0;exitDy=0;entryX=-0.024;entryY=0.833;entryDx=0;entryDy=0;entryPerimeter=0;" edge="1" parent="1" source="p_vRB4R4y17Bd1J3rTZT-52" target="AQnSwi48H9AKD2U_IpFZ-32">
          <mxGeometry relative="1" as="geometry" />
        </mxCell>
        <mxCell id="AQnSwi48H9AKD2U_IpFZ-40" style="edgeStyle=orthogonalEdgeStyle;rounded=0;orthogonalLoop=1;jettySize=auto;html=1;exitX=1;exitY=0.25;exitDx=0;exitDy=0;entryX=0.031;entryY=0.949;entryDx=0;entryDy=0;entryPerimeter=0;" edge="1" parent="1" source="p_vRB4R4y17Bd1J3rTZT-54" target="AQnSwi48H9AKD2U_IpFZ-32">
          <mxGeometry relative="1" as="geometry" />
        </mxCell>
        <mxCell id="AQnSwi48H9AKD2U_IpFZ-45" style="edgeStyle=orthogonalEdgeStyle;rounded=0;orthogonalLoop=1;jettySize=auto;html=1;exitX=1;exitY=0.5;exitDx=0;exitDy=0;entryX=1.012;entryY=0.922;entryDx=0;entryDy=0;entryPerimeter=0;" edge="1" parent="1" source="p_vRB4R4y17Bd1J3rTZT-85" target="AQnSwi48H9AKD2U_IpFZ-32">
          <mxGeometry relative="1" as="geometry" />
        </mxCell>
        <mxCell id="AQnSwi48H9AKD2U_IpFZ-49" style="edgeStyle=orthogonalEdgeStyle;rounded=0;orthogonalLoop=1;jettySize=auto;html=1;exitX=1;exitY=0.5;exitDx=0;exitDy=0;" edge="1" parent="1" source="AQnSwi48H9AKD2U_IpFZ-46" target="AQnSwi48H9AKD2U_IpFZ-48">
          <mxGeometry relative="1" as="geometry" />
        </mxCell>
        <mxCell id="AQnSwi48H9AKD2U_IpFZ-46" value="Mensagem diz: &quot;Obrigado! Os documentos foram enviados para&lt;br&gt;verificação. Voltaremos com o resultado em breve." style="rounded=1;whiteSpace=wrap;html=1;fillColor=#d5e8d4;gradientColor=#97d077;strokeColor=#82b366;" vertex="1" parent="1">
          <mxGeometry x="1780" y="15" width="170" height="150" as="geometry" />
        </mxCell>
        <mxCell id="AQnSwi48H9AKD2U_IpFZ-53" style="edgeStyle=orthogonalEdgeStyle;rounded=0;orthogonalLoop=1;jettySize=auto;html=1;exitX=0.5;exitY=1;exitDx=0;exitDy=0;entryX=0.5;entryY=0;entryDx=0;entryDy=0;" edge="1" parent="1" source="AQnSwi48H9AKD2U_IpFZ-48" target="AQnSwi48H9AKD2U_IpFZ-52">
          <mxGeometry relative="1" as="geometry" />
        </mxCell>
        <mxCell id="AQnSwi48H9AKD2U_IpFZ-48" value="Botão &quot;Entendi&quot;" style="rounded=1;whiteSpace=wrap;html=1;fillColor=#d5e8d4;gradientColor=#97d077;strokeColor=#82b366;" vertex="1" parent="1">
          <mxGeometry x="2010" y="35" width="160" height="85" as="geometry" />
        </mxCell>
        <mxCell id="AQnSwi48H9AKD2U_IpFZ-55" style="edgeStyle=orthogonalEdgeStyle;rounded=0;orthogonalLoop=1;jettySize=auto;html=1;exitX=0.5;exitY=1;exitDx=0;exitDy=0;" edge="1" parent="1" source="AQnSwi48H9AKD2U_IpFZ-52" target="AQnSwi48H9AKD2U_IpFZ-54">
          <mxGeometry relative="1" as="geometry" />
        </mxCell>
        <mxCell id="AQnSwi48H9AKD2U_IpFZ-52" value="Se os documentos forem aprovados&amp;nbsp;a moldura do campo ficará verde, e uma marca verde aparecerá dentro do&lt;br/&gt;campo próximo à borda direita" style="rounded=1;whiteSpace=wrap;html=1;fillColor=#d5e8d4;gradientColor=#97d077;strokeColor=#82b366;" vertex="1" parent="1">
          <mxGeometry x="2040" y="160" width="120" height="120" as="geometry" />
        </mxCell>
        <mxCell id="AQnSwi48H9AKD2U_IpFZ-57" style="edgeStyle=orthogonalEdgeStyle;rounded=0;orthogonalLoop=1;jettySize=auto;html=1;exitX=0.5;exitY=1;exitDx=0;exitDy=0;" edge="1" parent="1" source="AQnSwi48H9AKD2U_IpFZ-54" target="AQnSwi48H9AKD2U_IpFZ-56">
          <mxGeometry relative="1" as="geometry" />
        </mxCell>
        <mxCell id="AQnSwi48H9AKD2U_IpFZ-54" value="&#xa;O usuário não poderá editar os dados da carteira de motorista&#xa;&#xa;" style="rounded=1;whiteSpace=wrap;html=1;fillColor=#d5e8d4;gradientColor=#97d077;strokeColor=#82b366;" vertex="1" parent="1">
          <mxGeometry x="2040" y="320" width="120" height="95" as="geometry" />
        </mxCell>
        <mxCell id="AQnSwi48H9AKD2U_IpFZ-56" value="&lt;br&gt;Não é possível adicionar várias&lt;br&gt;carteiras de motorista&lt;br&gt;Ou seja, não é possivel adicionar mais documentos&amp;nbsp;" style="rounded=1;whiteSpace=wrap;html=1;fillColor=#d5e8d4;gradientColor=#97d077;strokeColor=#82b366;" vertex="1" parent="1">
          <mxGeometry x="2040" y="458" width="120" height="132" as="geometry" />
        </mxCell>
        <mxCell id="AQnSwi48H9AKD2U_IpFZ-60" value="Botão &quot;adiconar&quot; na cor azul apos dados serem inseridos corretamente" style="rounded=1;whiteSpace=wrap;html=1;fillColor=#1ba1e2;fontColor=#ffffff;strokeColor=#006EAF;" vertex="1" parent="1">
          <mxGeometry x="-10" y="-20" width="110" height="120" as="geometry" />
        </mxCell>
      </root>
    </mxGraphModel>
  </diagram>
</mxfile>
